<mxfile host="app.diagrams.net" modified="2021-02-22T22:02:16.489Z" agent="5.0 (Windows NT 10.0; Win64; x64) AppleWebKit/537.36 (KHTML, like Gecko) Chrome/88.0.4324.182 Safari/537.36" etag="hgW3-66Kht1mEjTtkW3Z" version="14.3.0" type="github">
  <diagram id="Ujto6jFo8xF5yOzEBkBD" name="Page-1">
    <mxGraphModel dx="1038" dy="580" grid="1" gridSize="10" guides="1" tooltips="1" connect="1" arrows="1" fold="1" page="1" pageScale="1" pageWidth="827" pageHeight="1169" math="0" shadow="0">
      <root>
        <mxCell id="0" />
        <mxCell id="1" parent="0" />
        <mxCell id="HO-bUqKEKd6fztYKbATN-1" value="Empresa" style="swimlane;fontStyle=0;childLayout=stackLayout;horizontal=1;startSize=26;fillColor=none;horizontalStack=0;resizeParent=1;resizeParentMax=0;resizeLast=0;collapsible=1;marginBottom=0;" vertex="1" parent="1">
          <mxGeometry x="500" y="70" width="140" height="104" as="geometry" />
        </mxCell>
        <mxCell id="HO-bUqKEKd6fztYKbATN-2" value="+ nome" style="text;strokeColor=none;fillColor=none;align=left;verticalAlign=top;spacingLeft=4;spacingRight=4;overflow=hidden;rotatable=0;points=[[0,0.5],[1,0.5]];portConstraint=eastwest;" vertex="1" parent="HO-bUqKEKd6fztYKbATN-1">
          <mxGeometry y="26" width="140" height="26" as="geometry" />
        </mxCell>
        <mxCell id="HO-bUqKEKd6fztYKbATN-3" value="+ morada" style="text;strokeColor=none;fillColor=none;align=left;verticalAlign=top;spacingLeft=4;spacingRight=4;overflow=hidden;rotatable=0;points=[[0,0.5],[1,0.5]];portConstraint=eastwest;" vertex="1" parent="HO-bUqKEKd6fztYKbATN-1">
          <mxGeometry y="52" width="140" height="26" as="geometry" />
        </mxCell>
        <mxCell id="HO-bUqKEKd6fztYKbATN-4" value="+ telefone" style="text;strokeColor=none;fillColor=none;align=left;verticalAlign=top;spacingLeft=4;spacingRight=4;overflow=hidden;rotatable=0;points=[[0,0.5],[1,0.5]];portConstraint=eastwest;" vertex="1" parent="HO-bUqKEKd6fztYKbATN-1">
          <mxGeometry y="78" width="140" height="26" as="geometry" />
        </mxCell>
        <mxCell id="HO-bUqKEKd6fztYKbATN-11" style="edgeStyle=orthogonalEdgeStyle;rounded=0;orthogonalLoop=1;jettySize=auto;html=1;entryX=1;entryY=0.5;entryDx=0;entryDy=0;endArrow=none;endFill=0;" edge="1" parent="1" source="HO-bUqKEKd6fztYKbATN-5" target="HO-bUqKEKd6fztYKbATN-3">
          <mxGeometry relative="1" as="geometry" />
        </mxCell>
        <mxCell id="HO-bUqKEKd6fztYKbATN-12" value="1" style="edgeLabel;html=1;align=center;verticalAlign=middle;resizable=0;points=[];fontSize=12;" vertex="1" connectable="0" parent="HO-bUqKEKd6fztYKbATN-11">
          <mxGeometry x="0.8492" relative="1" as="geometry">
            <mxPoint as="offset" />
          </mxGeometry>
        </mxCell>
        <mxCell id="HO-bUqKEKd6fztYKbATN-13" value="*" style="edgeLabel;html=1;align=center;verticalAlign=middle;resizable=0;points=[];fontSize=12;" vertex="1" connectable="0" parent="HO-bUqKEKd6fztYKbATN-11">
          <mxGeometry x="-0.8885" y="1" relative="1" as="geometry">
            <mxPoint x="-10" as="offset" />
          </mxGeometry>
        </mxCell>
        <mxCell id="HO-bUqKEKd6fztYKbATN-5" value="Oferta de trabalho" style="swimlane;fontStyle=0;childLayout=stackLayout;horizontal=1;startSize=26;fillColor=none;horizontalStack=0;resizeParent=1;resizeParentMax=0;resizeLast=0;collapsible=1;marginBottom=0;" vertex="1" parent="1">
          <mxGeometry x="610" y="349" width="170" height="156" as="geometry" />
        </mxCell>
        <mxCell id="HO-bUqKEKd6fztYKbATN-6" value="+ descrição" style="text;strokeColor=none;fillColor=none;align=left;verticalAlign=top;spacingLeft=4;spacingRight=4;overflow=hidden;rotatable=0;points=[[0,0.5],[1,0.5]];portConstraint=eastwest;" vertex="1" parent="HO-bUqKEKd6fztYKbATN-5">
          <mxGeometry y="26" width="170" height="26" as="geometry" />
        </mxCell>
        <mxCell id="HO-bUqKEKd6fztYKbATN-7" value="+ área de trabalho" style="text;strokeColor=none;fillColor=none;align=left;verticalAlign=top;spacingLeft=4;spacingRight=4;overflow=hidden;rotatable=0;points=[[0,0.5],[1,0.5]];portConstraint=eastwest;" vertex="1" parent="HO-bUqKEKd6fztYKbATN-5">
          <mxGeometry y="52" width="170" height="26" as="geometry" />
        </mxCell>
        <mxCell id="HO-bUqKEKd6fztYKbATN-8" value="+ habilitações necessárias" style="text;strokeColor=none;fillColor=none;align=left;verticalAlign=top;spacingLeft=4;spacingRight=4;overflow=hidden;rotatable=0;points=[[0,0.5],[1,0.5]];portConstraint=eastwest;" vertex="1" parent="HO-bUqKEKd6fztYKbATN-5">
          <mxGeometry y="78" width="170" height="26" as="geometry" />
        </mxCell>
        <mxCell id="HO-bUqKEKd6fztYKbATN-9" value="+ remuneração base" style="text;strokeColor=none;fillColor=none;align=left;verticalAlign=top;spacingLeft=4;spacingRight=4;overflow=hidden;rotatable=0;points=[[0,0.5],[1,0.5]];portConstraint=eastwest;" vertex="1" parent="HO-bUqKEKd6fztYKbATN-5">
          <mxGeometry y="104" width="170" height="26" as="geometry" />
        </mxCell>
        <mxCell id="HO-bUqKEKd6fztYKbATN-10" value="+ habilitações necessárias" style="text;strokeColor=none;fillColor=none;align=left;verticalAlign=top;spacingLeft=4;spacingRight=4;overflow=hidden;rotatable=0;points=[[0,0.5],[1,0.5]];portConstraint=eastwest;" vertex="1" parent="HO-bUqKEKd6fztYKbATN-5">
          <mxGeometry y="130" width="170" height="26" as="geometry" />
        </mxCell>
        <mxCell id="HO-bUqKEKd6fztYKbATN-31" style="edgeStyle=orthogonalEdgeStyle;rounded=0;orthogonalLoop=1;jettySize=auto;html=1;entryX=-0.009;entryY=-0.1;entryDx=0;entryDy=0;entryPerimeter=0;endArrow=none;endFill=0;fontSize=12;" edge="1" parent="1" source="HO-bUqKEKd6fztYKbATN-14" target="HO-bUqKEKd6fztYKbATN-7">
          <mxGeometry relative="1" as="geometry" />
        </mxCell>
        <mxCell id="HO-bUqKEKd6fztYKbATN-35" value="3" style="edgeLabel;html=1;align=center;verticalAlign=middle;resizable=0;points=[];fontSize=12;" vertex="1" connectable="0" parent="HO-bUqKEKd6fztYKbATN-31">
          <mxGeometry x="-0.9007" relative="1" as="geometry">
            <mxPoint as="offset" />
          </mxGeometry>
        </mxCell>
        <mxCell id="HO-bUqKEKd6fztYKbATN-36" value="*" style="edgeLabel;html=1;align=center;verticalAlign=middle;resizable=0;points=[];fontSize=12;" vertex="1" connectable="0" parent="HO-bUqKEKd6fztYKbATN-31">
          <mxGeometry x="0.9445" y="2" relative="1" as="geometry">
            <mxPoint as="offset" />
          </mxGeometry>
        </mxCell>
        <mxCell id="HO-bUqKEKd6fztYKbATN-14" value="Pessoa" style="swimlane;fontStyle=0;childLayout=stackLayout;horizontal=1;startSize=26;fillColor=none;horizontalStack=0;resizeParent=1;resizeParentMax=0;resizeLast=0;collapsible=1;marginBottom=0;fontSize=12;" vertex="1" parent="1">
          <mxGeometry x="82.5" y="310" width="235" height="234" as="geometry" />
        </mxCell>
        <mxCell id="HO-bUqKEKd6fztYKbATN-15" value="+nome" style="text;strokeColor=none;fillColor=none;align=left;verticalAlign=top;spacingLeft=4;spacingRight=4;overflow=hidden;rotatable=0;points=[[0,0.5],[1,0.5]];portConstraint=eastwest;" vertex="1" parent="HO-bUqKEKd6fztYKbATN-14">
          <mxGeometry y="26" width="235" height="26" as="geometry" />
        </mxCell>
        <mxCell id="HO-bUqKEKd6fztYKbATN-16" value="+ data de nascimento" style="text;strokeColor=none;fillColor=none;align=left;verticalAlign=top;spacingLeft=4;spacingRight=4;overflow=hidden;rotatable=0;points=[[0,0.5],[1,0.5]];portConstraint=eastwest;" vertex="1" parent="HO-bUqKEKd6fztYKbATN-14">
          <mxGeometry y="52" width="235" height="26" as="geometry" />
        </mxCell>
        <mxCell id="HO-bUqKEKd6fztYKbATN-17" value="+ estado civil" style="text;strokeColor=none;fillColor=none;align=left;verticalAlign=top;spacingLeft=4;spacingRight=4;overflow=hidden;rotatable=0;points=[[0,0.5],[1,0.5]];portConstraint=eastwest;" vertex="1" parent="HO-bUqKEKd6fztYKbATN-14">
          <mxGeometry y="78" width="235" height="26" as="geometry" />
        </mxCell>
        <mxCell id="HO-bUqKEKd6fztYKbATN-30" value="+ estado civil" style="text;strokeColor=none;fillColor=none;align=left;verticalAlign=top;spacingLeft=4;spacingRight=4;overflow=hidden;rotatable=0;points=[[0,0.5],[1,0.5]];portConstraint=eastwest;" vertex="1" parent="HO-bUqKEKd6fztYKbATN-14">
          <mxGeometry y="104" width="235" height="26" as="geometry" />
        </mxCell>
        <mxCell id="HO-bUqKEKd6fztYKbATN-18" value="+ habilitações" style="text;strokeColor=none;fillColor=none;align=left;verticalAlign=top;spacingLeft=4;spacingRight=4;overflow=hidden;rotatable=0;points=[[0,0.5],[1,0.5]];portConstraint=eastwest;" vertex="1" parent="HO-bUqKEKd6fztYKbATN-14">
          <mxGeometry y="130" width="235" height="26" as="geometry" />
        </mxCell>
        <mxCell id="HO-bUqKEKd6fztYKbATN-19" value="+ competencias" style="text;strokeColor=none;fillColor=none;align=left;verticalAlign=top;spacingLeft=4;spacingRight=4;overflow=hidden;rotatable=0;points=[[0,0.5],[1,0.5]];portConstraint=eastwest;" vertex="1" parent="HO-bUqKEKd6fztYKbATN-14">
          <mxGeometry y="156" width="235" height="26" as="geometry" />
        </mxCell>
        <mxCell id="HO-bUqKEKd6fztYKbATN-20" value="+ limite minimo remuneraçao" style="text;strokeColor=none;fillColor=none;align=left;verticalAlign=top;spacingLeft=4;spacingRight=4;overflow=hidden;rotatable=0;points=[[0,0.5],[1,0.5]];portConstraint=eastwest;" vertex="1" parent="HO-bUqKEKd6fztYKbATN-14">
          <mxGeometry y="182" width="235" height="26" as="geometry" />
        </mxCell>
        <mxCell id="HO-bUqKEKd6fztYKbATN-21" value="+ lista com areas de trabalho preferenciais" style="text;strokeColor=none;fillColor=none;align=left;verticalAlign=top;spacingLeft=4;spacingRight=4;overflow=hidden;rotatable=0;points=[[0,0.5],[1,0.5]];portConstraint=eastwest;" vertex="1" parent="HO-bUqKEKd6fztYKbATN-14">
          <mxGeometry y="208" width="235" height="26" as="geometry" />
        </mxCell>
        <mxCell id="HO-bUqKEKd6fztYKbATN-32" style="edgeStyle=orthogonalEdgeStyle;rounded=0;orthogonalLoop=1;jettySize=auto;html=1;endArrow=none;endFill=0;fontSize=12;dashed=1;" edge="1" parent="1" source="HO-bUqKEKd6fztYKbATN-22">
          <mxGeometry relative="1" as="geometry">
            <mxPoint x="450" y="430" as="targetPoint" />
          </mxGeometry>
        </mxCell>
        <mxCell id="HO-bUqKEKd6fztYKbATN-22" value="Entrevista" style="swimlane;fontStyle=0;childLayout=stackLayout;horizontal=1;startSize=26;fillColor=none;horizontalStack=0;resizeParent=1;resizeParentMax=0;resizeLast=0;collapsible=1;marginBottom=0;fontSize=12;" vertex="1" parent="1">
          <mxGeometry x="380" y="470" width="140" height="104" as="geometry" />
        </mxCell>
        <mxCell id="HO-bUqKEKd6fztYKbATN-23" value="+ data do contacto" style="text;strokeColor=none;fillColor=none;align=left;verticalAlign=top;spacingLeft=4;spacingRight=4;overflow=hidden;rotatable=0;points=[[0,0.5],[1,0.5]];portConstraint=eastwest;" vertex="1" parent="HO-bUqKEKd6fztYKbATN-22">
          <mxGeometry y="26" width="140" height="26" as="geometry" />
        </mxCell>
        <mxCell id="HO-bUqKEKd6fztYKbATN-24" value="+ data da entrevista" style="text;strokeColor=none;fillColor=none;align=left;verticalAlign=top;spacingLeft=4;spacingRight=4;overflow=hidden;rotatable=0;points=[[0,0.5],[1,0.5]];portConstraint=eastwest;" vertex="1" parent="HO-bUqKEKd6fztYKbATN-22">
          <mxGeometry y="52" width="140" height="26" as="geometry" />
        </mxCell>
        <mxCell id="HO-bUqKEKd6fztYKbATN-25" value="+ hora da entevista" style="text;strokeColor=none;fillColor=none;align=left;verticalAlign=top;spacingLeft=4;spacingRight=4;overflow=hidden;rotatable=0;points=[[0,0.5],[1,0.5]];portConstraint=eastwest;" vertex="1" parent="HO-bUqKEKd6fztYKbATN-22">
          <mxGeometry y="78" width="140" height="26" as="geometry" />
        </mxCell>
        <mxCell id="HO-bUqKEKd6fztYKbATN-37" style="edgeStyle=orthogonalEdgeStyle;rounded=0;orthogonalLoop=1;jettySize=auto;html=1;endArrow=none;endFill=0;fontSize=12;entryX=-0.014;entryY=0;entryDx=0;entryDy=0;entryPerimeter=0;" edge="1" parent="1" source="HO-bUqKEKd6fztYKbATN-16" target="HO-bUqKEKd6fztYKbATN-6">
          <mxGeometry relative="1" as="geometry">
            <mxPoint x="600" y="375" as="targetPoint" />
            <Array as="points">
              <mxPoint x="540" y="375" />
              <mxPoint x="540" y="375" />
            </Array>
          </mxGeometry>
        </mxCell>
        <mxCell id="HO-bUqKEKd6fztYKbATN-39" value="1" style="edgeLabel;html=1;align=center;verticalAlign=middle;resizable=0;points=[];fontSize=12;" vertex="1" connectable="0" parent="HO-bUqKEKd6fztYKbATN-37">
          <mxGeometry x="-0.9152" y="2" relative="1" as="geometry">
            <mxPoint as="offset" />
          </mxGeometry>
        </mxCell>
        <mxCell id="HO-bUqKEKd6fztYKbATN-41" value="*" style="edgeLabel;html=1;align=center;verticalAlign=middle;resizable=0;points=[];fontSize=12;" vertex="1" connectable="0" parent="HO-bUqKEKd6fztYKbATN-37">
          <mxGeometry x="0.9185" y="5" relative="1" as="geometry">
            <mxPoint as="offset" />
          </mxGeometry>
        </mxCell>
        <mxCell id="HO-bUqKEKd6fztYKbATN-46" style="edgeStyle=orthogonalEdgeStyle;rounded=0;orthogonalLoop=1;jettySize=auto;html=1;endArrow=none;endFill=0;fontSize=12;dashed=1;" edge="1" parent="1" source="HO-bUqKEKd6fztYKbATN-42">
          <mxGeometry relative="1" as="geometry">
            <mxPoint x="460" y="370" as="targetPoint" />
          </mxGeometry>
        </mxCell>
        <mxCell id="HO-bUqKEKd6fztYKbATN-42" value="Conseguiu emprego" style="swimlane;fontStyle=0;childLayout=stackLayout;horizontal=1;startSize=26;fillColor=none;horizontalStack=0;resizeParent=1;resizeParentMax=0;resizeLast=0;collapsible=1;marginBottom=0;fontSize=12;" vertex="1" parent="1">
          <mxGeometry x="390" y="270" width="140" height="52" as="geometry" />
        </mxCell>
        <mxCell id="HO-bUqKEKd6fztYKbATN-43" value="+ classificação" style="text;strokeColor=none;fillColor=none;align=left;verticalAlign=top;spacingLeft=4;spacingRight=4;overflow=hidden;rotatable=0;points=[[0,0.5],[1,0.5]];portConstraint=eastwest;" vertex="1" parent="HO-bUqKEKd6fztYKbATN-42">
          <mxGeometry y="26" width="140" height="26" as="geometry" />
        </mxCell>
      </root>
    </mxGraphModel>
  </diagram>
</mxfile>
